<svg xmlns="http://www.w3.org/2000/svg" xmlns:xlink="http://www.w3.org/1999/xlink" width="1024" zoomAndPan="magnify" viewBox="0 0 768 767.999994" height="1024" preserveAspectRatio="xMidYMid meet" version="1.2"><defs/><g id="9606f8b054"><rect x="0" width="768" y="0" height="767.999994" style="fill:#ffffff;fill-opacity:1;stroke:none;"/><rect x="0" width="768" y="0" height="767.999994" style="fill:#ffffff;fill-opacity:1;stroke:none;"/><rect x="0" width="768" y="0" height="767.999994" style="fill:#0c0c0c;fill-opacity:1;stroke:none;"/><g style="fill:#ffffff;fill-opacity:1;"><g transform="translate(105.801759, 312.000005)"><path style="stroke:none" d="M 110.75 -100.546875 C 110.75 -88.722656 106.703125 -78.898438 98.609375 -71.078125 C 90.515625 -63.253906 78.175781 -59.34375 61.59375 -59.34375 L 34.265625 -59.34375 L 34.265625 0 L 15.703125 0 L 15.703125 -142.15625 L 61.59375 -142.15625 C 77.632812 -142.15625 89.835938 -138.28125 98.203125 -130.53125 C 106.566406 -122.78125 110.75 -112.785156 110.75 -100.546875 Z M 61.59375 -74.640625 C 71.925781 -74.640625 79.539062 -76.882812 84.4375 -81.375 C 89.332031 -85.863281 91.78125 -92.253906 91.78125 -100.546875 C 91.78125 -118.085938 81.71875 -126.859375 61.59375 -126.859375 L 34.265625 -126.859375 L 34.265625 -74.640625 Z M 61.59375 -74.640625 "/></g></g><g style="fill:#ffffff;fill-opacity:1;"><g transform="translate(223.891505, 312.000005)"><path style="stroke:none" d="M 34.265625 -150.921875 L 34.265625 0 L 15.703125 0 L 15.703125 -150.921875 Z M 34.265625 -150.921875 "/></g></g><g style="fill:#ffffff;fill-opacity:1;"><g transform="translate(274.064347, 312.000005)"><path style="stroke:none" d="M 8.765625 -56.296875 C 8.765625 -67.710938 11.078125 -77.738281 15.703125 -86.375 C 20.328125 -95.007812 26.679688 -101.707031 34.765625 -106.46875 C 42.859375 -111.226562 51.867188 -113.609375 61.796875 -113.609375 C 71.585938 -113.609375 80.082031 -111.5 87.28125 -107.28125 C 94.488281 -103.0625 99.863281 -97.757812 103.40625 -91.375 L 103.40625 -111.765625 L 122.171875 -111.765625 L 122.171875 0 L 103.40625 0 L 103.40625 -20.796875 C 99.726562 -14.273438 94.253906 -8.875 86.984375 -4.59375 C 79.710938 -0.3125 71.25 1.828125 61.59375 1.828125 C 51.664062 1.828125 42.691406 -0.613281 34.671875 -5.5 C 26.648438 -10.394531 20.328125 -17.257812 15.703125 -26.09375 C 11.078125 -34.9375 8.765625 -45.003906 8.765625 -56.296875 Z M 103.40625 -56.09375 C 103.40625 -64.519531 101.703125 -71.859375 98.296875 -78.109375 C 94.898438 -84.367188 90.3125 -89.160156 84.53125 -92.484375 C 78.757812 -95.816406 72.40625 -97.484375 65.46875 -97.484375 C 58.53125 -97.484375 52.207031 -95.851562 46.5 -92.59375 C 40.789062 -89.332031 36.234375 -84.570312 32.828125 -78.3125 C 29.429688 -72.0625 27.734375 -64.722656 27.734375 -56.296875 C 27.734375 -47.722656 29.429688 -40.273438 32.828125 -33.953125 C 36.234375 -27.628906 40.789062 -22.800781 46.5 -19.46875 C 52.207031 -16.144531 58.53125 -14.484375 65.46875 -14.484375 C 72.40625 -14.484375 78.757812 -16.144531 84.53125 -19.46875 C 90.3125 -22.800781 94.898438 -27.628906 98.296875 -33.953125 C 101.703125 -40.273438 103.40625 -47.65625 103.40625 -56.09375 Z M 103.40625 -56.09375 "/></g></g><g style="fill:#ffffff;fill-opacity:1;"><g transform="translate(411.937702, 312.000005)"><path style="stroke:none" d="M 8.765625 -56.09375 C 8.765625 -67.644531 11.078125 -77.738281 15.703125 -86.375 C 20.328125 -95.007812 26.75 -101.707031 34.96875 -106.46875 C 43.195312 -111.226562 52.613281 -113.609375 63.21875 -113.609375 C 76.957031 -113.609375 88.28125 -110.273438 97.1875 -103.609375 C 106.09375 -96.941406 111.972656 -87.695312 114.828125 -75.875 L 94.84375 -75.875 C 92.9375 -82.664062 89.226562 -88.03125 83.71875 -91.96875 C 78.21875 -95.914062 71.382812 -97.890625 63.21875 -97.890625 C 52.613281 -97.890625 44.046875 -94.253906 37.515625 -86.984375 C 30.992188 -79.710938 27.734375 -69.414062 27.734375 -56.09375 C 27.734375 -42.625 30.992188 -32.21875 37.515625 -24.875 C 44.046875 -17.539062 52.613281 -13.875 63.21875 -13.875 C 71.382812 -13.875 78.1875 -15.773438 83.625 -19.578125 C 89.0625 -23.390625 92.800781 -28.828125 94.84375 -35.890625 L 114.828125 -35.890625 C 111.835938 -24.472656 105.851562 -15.332031 96.875 -8.46875 C 87.90625 -1.601562 76.6875 1.828125 63.21875 1.828125 C 52.613281 1.828125 43.195312 -0.546875 34.96875 -5.296875 C 26.75 -10.054688 20.328125 -16.785156 15.703125 -25.484375 C 11.078125 -34.191406 8.765625 -44.394531 8.765625 -56.09375 Z M 8.765625 -56.09375 "/></g></g><g style="fill:#ffffff;fill-opacity:1;"><g transform="translate(535.738142, 312.000005)"><path style="stroke:none" d="M 117.6875 -60.171875 C 117.6875 -56.628906 117.476562 -52.890625 117.0625 -48.953125 L 27.734375 -48.953125 C 28.410156 -37.929688 32.179688 -29.328125 39.046875 -23.140625 C 45.921875 -16.960938 54.253906 -13.875 64.046875 -13.875 C 72.066406 -13.875 78.757812 -15.742188 84.125 -19.484375 C 89.5 -23.222656 93.273438 -28.21875 95.453125 -34.46875 L 115.4375 -34.46875 C 112.445312 -23.726562 106.460938 -14.992188 97.484375 -8.265625 C 88.515625 -1.535156 77.367188 1.828125 64.046875 1.828125 C 53.441406 1.828125 43.957031 -0.546875 35.59375 -5.296875 C 27.226562 -10.054688 20.664062 -16.820312 15.90625 -25.59375 C 11.144531 -34.363281 8.765625 -44.53125 8.765625 -56.09375 C 8.765625 -67.644531 11.078125 -77.769531 15.703125 -86.46875 C 20.328125 -95.175781 26.816406 -101.875 35.171875 -106.5625 C 43.535156 -111.257812 53.160156 -113.609375 64.046875 -113.609375 C 74.648438 -113.609375 84.03125 -111.296875 92.1875 -106.671875 C 100.34375 -102.046875 106.628906 -95.6875 111.046875 -87.59375 C 115.472656 -79.507812 117.6875 -70.367188 117.6875 -60.171875 Z M 98.515625 -64.046875 C 98.515625 -71.109375 96.945312 -77.1875 93.8125 -82.28125 C 90.6875 -87.382812 86.4375 -91.257812 81.0625 -93.90625 C 75.695312 -96.5625 69.75 -97.890625 63.21875 -97.890625 C 53.84375 -97.890625 45.859375 -94.898438 39.265625 -88.921875 C 32.671875 -82.941406 28.894531 -74.648438 27.9375 -64.046875 Z M 98.515625 -64.046875 "/></g></g><g style="fill:#ffffff;fill-opacity:1;"><g transform="translate(58.176761, 596.99999)"><path style="stroke:none" d="M 71.171875 -113.8125 C 79.609375 -113.8125 87.222656 -112.007812 94.015625 -108.40625 C 100.816406 -104.800781 106.15625 -99.394531 110.03125 -92.1875 C 113.90625 -84.976562 115.84375 -76.207031 115.84375 -65.875 L 115.84375 0 L 97.484375 0 L 97.484375 -63.21875 C 97.484375 -74.375 94.695312 -82.90625 89.125 -88.8125 C 83.550781 -94.726562 75.9375 -97.6875 66.28125 -97.6875 C 56.488281 -97.6875 48.703125 -94.628906 42.921875 -88.515625 C 37.148438 -82.398438 34.265625 -73.492188 34.265625 -61.796875 L 34.265625 0 L 15.703125 0 L 15.703125 -150.921875 L 34.265625 -150.921875 L 34.265625 -95.859375 C 37.929688 -101.566406 42.992188 -105.984375 49.453125 -109.109375 C 55.910156 -112.242188 63.148438 -113.8125 71.171875 -113.8125 Z M 71.171875 -113.8125 "/></g></g><g style="fill:#ffffff;fill-opacity:1;"><g transform="translate(188.707737, 596.99999)"><path style="stroke:none" d="M 64.453125 1.828125 C 53.984375 1.828125 44.5 -0.546875 36 -5.296875 C 27.5 -10.054688 20.832031 -16.820312 16 -25.59375 C 11.175781 -34.363281 8.765625 -44.53125 8.765625 -56.09375 C 8.765625 -67.507812 11.242188 -77.601562 16.203125 -86.375 C 21.171875 -95.144531 27.9375 -101.875 36.5 -106.5625 C 45.070312 -111.257812 54.660156 -113.609375 65.265625 -113.609375 C 75.867188 -113.609375 85.453125 -111.257812 94.015625 -106.5625 C 102.585938 -101.875 109.351562 -95.175781 114.3125 -86.46875 C 119.28125 -77.769531 121.765625 -67.644531 121.765625 -56.09375 C 121.765625 -44.53125 119.210938 -34.363281 114.109375 -25.59375 C 109.015625 -16.820312 102.113281 -10.054688 93.40625 -5.296875 C 84.707031 -0.546875 75.054688 1.828125 64.453125 1.828125 Z M 64.453125 -14.484375 C 71.109375 -14.484375 77.359375 -16.046875 83.203125 -19.171875 C 89.054688 -22.296875 93.785156 -26.984375 97.390625 -33.234375 C 100.992188 -39.492188 102.796875 -47.113281 102.796875 -56.09375 C 102.796875 -65.0625 101.023438 -72.671875 97.484375 -78.921875 C 93.953125 -85.179688 89.332031 -89.835938 83.625 -92.890625 C 77.914062 -95.953125 71.726562 -97.484375 65.0625 -97.484375 C 58.257812 -97.484375 52.035156 -95.953125 46.390625 -92.890625 C 40.753906 -89.835938 36.234375 -85.179688 32.828125 -78.921875 C 29.429688 -72.671875 27.734375 -65.0625 27.734375 -56.09375 C 27.734375 -46.976562 29.398438 -39.289062 32.734375 -33.03125 C 36.066406 -26.78125 40.519531 -22.125 46.09375 -19.0625 C 51.664062 -16.007812 57.785156 -14.484375 64.453125 -14.484375 Z M 64.453125 -14.484375 "/></g></g><g style="fill:#ffffff;fill-opacity:1;"><g transform="translate(319.238713, 596.99999)"><path style="stroke:none" d="M 34.265625 -150.921875 L 34.265625 0 L 15.703125 0 L 15.703125 -150.921875 Z M 34.265625 -150.921875 "/></g></g><g style="fill:#ffffff;fill-opacity:1;"><g transform="translate(369.411555, 596.99999)"><path style="stroke:none" d="M 8.765625 -56.296875 C 8.765625 -67.710938 11.078125 -77.738281 15.703125 -86.375 C 20.328125 -95.007812 26.679688 -101.707031 34.765625 -106.46875 C 42.859375 -111.226562 51.9375 -113.609375 62 -113.609375 C 70.707031 -113.609375 78.796875 -111.597656 86.265625 -107.578125 C 93.742188 -103.566406 99.457031 -98.300781 103.40625 -91.78125 L 103.40625 -150.921875 L 122.171875 -150.921875 L 122.171875 0 L 103.40625 0 L 103.40625 -21 C 99.726562 -14.34375 94.285156 -8.875 87.078125 -4.59375 C 79.878906 -0.3125 71.453125 1.828125 61.796875 1.828125 C 51.867188 1.828125 42.859375 -0.613281 34.765625 -5.5 C 26.679688 -10.394531 20.328125 -17.257812 15.703125 -26.09375 C 11.078125 -34.9375 8.765625 -45.003906 8.765625 -56.296875 Z M 103.40625 -56.09375 C 103.40625 -64.519531 101.703125 -71.859375 98.296875 -78.109375 C 94.898438 -84.367188 90.3125 -89.160156 84.53125 -92.484375 C 78.757812 -95.816406 72.40625 -97.484375 65.46875 -97.484375 C 58.53125 -97.484375 52.207031 -95.851562 46.5 -92.59375 C 40.789062 -89.332031 36.234375 -84.570312 32.828125 -78.3125 C 29.429688 -72.0625 27.734375 -64.722656 27.734375 -56.296875 C 27.734375 -47.722656 29.429688 -40.273438 32.828125 -33.953125 C 36.234375 -27.628906 40.789062 -22.800781 46.5 -19.46875 C 52.207031 -16.144531 58.53125 -14.484375 65.46875 -14.484375 C 72.40625 -14.484375 78.757812 -16.144531 84.53125 -19.46875 C 90.3125 -22.800781 94.898438 -27.628906 98.296875 -33.953125 C 101.703125 -40.273438 103.40625 -47.65625 103.40625 -56.09375 Z M 103.40625 -56.09375 "/></g></g><g style="fill:#ffffff;fill-opacity:1;"><g transform="translate(507.284933, 596.99999)"><path style="stroke:none" d="M 117.6875 -60.171875 C 117.6875 -56.628906 117.476562 -52.890625 117.0625 -48.953125 L 27.734375 -48.953125 C 28.410156 -37.929688 32.179688 -29.328125 39.046875 -23.140625 C 45.921875 -16.960938 54.253906 -13.875 64.046875 -13.875 C 72.066406 -13.875 78.757812 -15.742188 84.125 -19.484375 C 89.5 -23.222656 93.273438 -28.21875 95.453125 -34.46875 L 115.4375 -34.46875 C 112.445312 -23.726562 106.460938 -14.992188 97.484375 -8.265625 C 88.515625 -1.535156 77.367188 1.828125 64.046875 1.828125 C 53.441406 1.828125 43.957031 -0.546875 35.59375 -5.296875 C 27.226562 -10.054688 20.664062 -16.820312 15.90625 -25.59375 C 11.144531 -34.363281 8.765625 -44.53125 8.765625 -56.09375 C 8.765625 -67.644531 11.078125 -77.769531 15.703125 -86.46875 C 20.328125 -95.175781 26.816406 -101.875 35.171875 -106.5625 C 43.535156 -111.257812 53.160156 -113.609375 64.046875 -113.609375 C 74.648438 -113.609375 84.03125 -111.296875 92.1875 -106.671875 C 100.34375 -102.046875 106.628906 -95.6875 111.046875 -87.59375 C 115.472656 -79.507812 117.6875 -70.367188 117.6875 -60.171875 Z M 98.515625 -64.046875 C 98.515625 -71.109375 96.945312 -77.1875 93.8125 -82.28125 C 90.6875 -87.382812 86.4375 -91.257812 81.0625 -93.90625 C 75.695312 -96.5625 69.75 -97.890625 63.21875 -97.890625 C 53.84375 -97.890625 45.859375 -94.898438 39.265625 -88.921875 C 32.671875 -82.941406 28.894531 -74.648438 27.9375 -64.046875 Z M 98.515625 -64.046875 "/></g></g><g style="fill:#ffffff;fill-opacity:1;"><g transform="translate(633.736787, 596.99999)"><path style="stroke:none" d="M 34.265625 -93.609375 C 37.523438 -100.003906 42.179688 -104.96875 48.234375 -108.5 C 54.285156 -112.039062 61.660156 -113.8125 70.359375 -113.8125 L 70.359375 -94.640625 L 65.46875 -94.640625 C 44.664062 -94.640625 34.265625 -83.351562 34.265625 -60.78125 L 34.265625 0 L 15.703125 0 L 15.703125 -111.765625 L 34.265625 -111.765625 Z M 34.265625 -93.609375 "/></g></g></g></svg>